<mxfile host="app.diagrams.net" agent="Mozilla/5.0 (Windows NT 10.0; Win64; x64) AppleWebKit/537.36 (KHTML, like Gecko) Chrome/127.0.0.0 Safari/537.36 OPR/113.0.0.0" version="24.7.17">
  <diagram name="Page-1" id="kn0pzf5CrisQtd76Tj6F">
    <mxGraphModel dx="911" dy="454" grid="1" gridSize="10" guides="1" tooltips="1" connect="1" arrows="1" fold="1" page="1" pageScale="1" pageWidth="850" pageHeight="1100" math="0" shadow="0">
      <root>
        <mxCell id="0" />
        <mxCell id="1" parent="0" />
        <mxCell id="t5O_zeJZ4166cuyvvhvV-4" value="" style="rounded=1;whiteSpace=wrap;html=1;rotation=90;gradientColor=none;gradientDirection=south;fillColor=#CC0000;strokeColor=default;" vertex="1" parent="1">
          <mxGeometry x="180" y="480" width="120" height="10" as="geometry" />
        </mxCell>
        <mxCell id="t5O_zeJZ4166cuyvvhvV-1" value="" style="rounded=0;whiteSpace=wrap;html=1;" vertex="1" parent="1">
          <mxGeometry y="520" width="120" height="60" as="geometry" />
        </mxCell>
        <mxCell id="t5O_zeJZ4166cuyvvhvV-2" value="" style="rounded=1;whiteSpace=wrap;html=1;fillColor=#CC0000;" vertex="1" parent="1">
          <mxGeometry x="120" y="545" width="120" height="10" as="geometry" />
        </mxCell>
        <mxCell id="t5O_zeJZ4166cuyvvhvV-5" value="" style="rounded=1;whiteSpace=wrap;html=1;rotation=-180;fillColor=#CC0000;" vertex="1" parent="1">
          <mxGeometry x="240" y="545" width="120" height="10" as="geometry" />
        </mxCell>
        <mxCell id="t5O_zeJZ4166cuyvvhvV-6" value="" style="rounded=1;whiteSpace=wrap;html=1;rotation=90;fillColor=#CC0000;" vertex="1" parent="1">
          <mxGeometry x="180" y="610" width="120" height="10" as="geometry" />
        </mxCell>
        <mxCell id="t5O_zeJZ4166cuyvvhvV-3" value="" style="rounded=0;whiteSpace=wrap;html=1;rotation=-45;" vertex="1" parent="1">
          <mxGeometry x="180" y="545" width="120" height="10" as="geometry" />
        </mxCell>
      </root>
    </mxGraphModel>
  </diagram>
</mxfile>
